HIERARCHY
ROOT Hips
{
	OFFSET 26.931601 11.656584 98.811096
	CHANNELS 6 Xposition Yposition Zposition Xrotation Yrotation Zrotation
	JOINT spine
	{
		OFFSET 0.000000 -0.477352 8.301041
		CHANNELS 3 Xrotation Yrotation Zrotation
		JOINT spine1
		{
			OFFSET 0.000000 -0.000002 10.456497
			CHANNELS 3 Xrotation Yrotation Zrotation
			JOINT spine2
			{
				OFFSET 0.000000 -0.000002 10.019203
				CHANNELS 3 Xrotation Yrotation Zrotation
				JOINT Neck
				{
					OFFSET 0.000000 -1.226414 25.723503
					CHANNELS 3 Xrotation Yrotation Zrotation
					JOINT Head
					{
						OFFSET 0.000000 -0.000002 7.771744
						CHANNELS 3 Xrotation Yrotation Zrotation
						End Site
						{
							OFFSET 0.000000 6.203938 18.811996
						}
					}
				}
				JOINT RightShoulder
				{
					OFFSET -4.218800 0.587437 10.820000
					CHANNELS 3 Xrotation Yrotation Zrotation
					JOINT RightArm
					{
						OFFSET 0.000000 -0.000002 14.191406
						CHANNELS 3 Xrotation Yrotation Zrotation
						JOINT RightArmRoll
						{
							OFFSET 0.000000 -0.000001 7.164078
							CHANNELS 3 Xrotation Yrotation Zrotation
							JOINT RightForeArm
							{
								OFFSET 0.000000 -0.000004 20.866501
								CHANNELS 3 Xrotation Yrotation Zrotation
								JOINT RightForeArmRoll
								{
									OFFSET 0.000000 -0.000001 8.039215
									CHANNELS 3 Xrotation Yrotation Zrotation
									JOINT RightHand
									{
										OFFSET 0.000000 -0.000003 16.132996
										CHANNELS 3 Xrotation Yrotation Zrotation
										End Site
										{
											OFFSET 0.000000 0.000000 0.100006
										}
									}
								}
							}
						}
					}
				}
				JOINT LeftShoulder
				{
					OFFSET 4.218800 0.587437 10.820000
					CHANNELS 3 Xrotation Yrotation Zrotation
					JOINT LeftArm
					{
						OFFSET 0.000000 -0.000002 14.191406
						CHANNELS 3 Xrotation Yrotation Zrotation
						JOINT LeftArmRoll
						{
							OFFSET 0.000000 -0.000001 7.164093
							CHANNELS 3 Xrotation Yrotation Zrotation
							JOINT LeftForeArm
							{
								OFFSET 0.000000 -0.000004 20.866501
								CHANNELS 3 Xrotation Yrotation Zrotation
								JOINT LeftForeArmRoll
								{
									OFFSET 0.000000 -0.000001 8.039215
									CHANNELS 3 Xrotation Yrotation Zrotation
									JOINT LeftHand
									{
										OFFSET 0.000000 -0.000003 16.132996
										CHANNELS 3 Xrotation Yrotation Zrotation
										End Site
										{
											OFFSET 0.000000 0.000000 0.100006
										}
									}
								}
							}
						}
					}
				}
			}
		}
	}
	JOINT RightUpLeg
	{
		OFFSET -7.357729 1.131820 -1.349213
		CHANNELS 3 Xrotation Yrotation Zrotation
		JOINT RightUpLegRoll
		{
			OFFSET 0.000000 -0.000003 18.916801
			CHANNELS 3 Xrotation Yrotation Zrotation
			JOINT RightLeg
			{
				OFFSET 0.000000 0.000004 -23.425598
				CHANNELS 3 Xrotation Yrotation Zrotation
				JOINT RightLegRoll
				{
					OFFSET 0.000000 -0.000004 23.502296
					CHANNELS 3 Xrotation Yrotation Zrotation
					JOINT RightFoot
					{
						OFFSET 0.000000 -0.000003 19.561707
						CHANNELS 3 Xrotation Yrotation Zrotation
						JOINT RightToeBase
						{
							OFFSET 0.000000 -0.000003 16.352600
							CHANNELS 3 Xrotation Yrotation Zrotation
							End Site
							{
								OFFSET 0.006931 0.912836 7.919434
							}
						}
					}
				}
			}
		}
	}
	JOINT LeftUpLeg
	{
		OFFSET 7.357729 1.131820 -1.349213
		CHANNELS 3 Xrotation Yrotation Zrotation
		JOINT LeftUpLegRoll
		{
			OFFSET 0.000000 -0.000003 18.916901
			CHANNELS 3 Xrotation Yrotation Zrotation
			JOINT LeftLeg
			{
				OFFSET 0.000000 -0.000004 23.425507
				CHANNELS 3 Xrotation Yrotation Zrotation
				JOINT LeftLegRoll
				{
					OFFSET 0.000000 -0.000004 23.719498
					CHANNELS 3 Xrotation Yrotation Zrotation
					JOINT LeftFoot
					{
						OFFSET 0.000000 -0.000003 19.344406
						CHANNELS 3 Xrotation Yrotation Zrotation
						JOINT LeftToeBase
						{
							OFFSET 0.000000 -0.000003 16.352600
							CHANNELS 3 Xrotation Yrotation Zrotation
							End Site
							{
								OFFSET -0.031063 0.912836 7.919434
							}
						}
					}
				}
			}
		}
	}
}
MOTION
Frames: 6
Frame Time: 0.041667
31.598499 0.842360 98.736984 -4.413972 -0.362872 0.832415 -0.477000 -0.161826 0.287854 3.048488 -0.318082 0.573592 4.693540 -0.311090 0.577630 22.458142 1.109329 -2.621132 -8.379273 -0.928581 -2.539352 -3.705786 -73.229095 -5.726765 -83.130444 -114.577366 -55.414903 0.000002 0.000001 0.000001 0.049856 -6.416509 0.302858 -0.000000 0.000018 -3.022070 -5.000187 -7.999220 0.000101 9.393534 66.409417 -9.614207 -56.598994 108.863448 39.494910 -0.000001 -0.000000 0.000000 5.201817 9.180177 0.204675 -0.000005 0.000001 3.000001 -5.000230 7.998862 -0.000139 2.815208 -172.812597 3.313473 -179.999991 0.000005 -1.217995 174.393881 -3.820692 -0.655754 -0.000001 0.000001 0.064834 68.425197 6.944364 2.035989 25.456902 -7.341546 0.000003 1.596260 171.986076 -1.215542 -0.000005 -0.000004 -1.302920 -9.149382 2.533988 0.960714 -0.000003 -0.000002 -0.103295 68.189296 -6.983173 -1.942831 25.456875 7.352700 0.000000 
31.599998 0.866520 98.745285 -4.419740 -0.366509 0.829366 -0.474371 -0.161848 0.285440 3.053798 -0.319651 0.570577 4.698850 -0.312688 0.574614 22.435903 1.142147 -2.622504 -8.372107 -0.940261 -2.539242 -3.718836 -73.190900 -5.737668 -82.965741 -114.629849 -55.317238 0.000001 -0.000000 0.000000 0.041335 -6.444610 0.309010 0.000003 0.000017 -3.021129 -5.000187 -7.999221 0.000097 9.394739 66.420339 -9.613704 -56.613737 108.912407 39.560698 -0.000001 0.000000 -0.000001 5.298883 9.194488 0.197862 -0.000004 0.000001 3.000002 -5.000234 7.998862 -0.000138 2.816033 -172.807611 3.315090 -179.999991 0.000005 -1.217995 174.393813 -3.817713 -0.655467 -0.000001 0.000001 0.064843 68.424466 6.944385 2.035940 25.456899 -7.341545 0.000005 1.585916 171.989026 -1.214193 -0.000004 -0.000003 -1.302930 -9.170274 2.535477 0.962035 -0.000004 -0.000002 -0.103901 68.196673 -6.983182 -1.942265 25.456877 7.352700 0.000003 
31.597698 0.869623 98.740082 -4.426122 -0.370196 0.826260 -0.471619 -0.161883 0.282960 3.059319 -0.321317 0.567539 4.704371 -0.314383 0.571576 22.413384 1.176077 -2.623879 -8.364514 -0.952599 -2.539079 -3.731959 -73.151394 -5.748532 -82.798340 -114.683357 -55.216120 0.000000 0.000001 0.000000 0.028659 -6.471641 0.315421 0.000001 0.000017 -3.020151 -5.000184 -7.999220 0.000100 9.395619 66.431793 -9.612748 -56.632274 108.961475 39.629823 -0.000002 -0.000001 0.000001 5.394866 9.208405 0.191076 -0.000005 0.000001 3.000000 -5.000230 7.998862 -0.000138 2.817699 -172.802625 3.316672 -179.999991 0.000005 -1.217995 174.394045 -3.815716 -0.656252 -0.000001 0.000000 0.064856 68.423838 6.944378 2.035778 25.456906 -7.341544 0.000003 1.576090 171.991991 -1.212641 -0.000004 -0.000004 -1.302960 -9.191604 2.536679 0.963381 -0.000003 -0.000002 -0.104529 68.204978 -6.983150 -1.941632 25.456875 7.352699 0.000001 
31.597998 0.873631 98.742882 -4.432915 -0.373918 0.823114 -0.468787 -0.161925 0.280437 3.065000 -0.323052 0.564486 4.710061 -0.316145 0.568521 22.390774 1.210786 -2.625232 -8.356616 -0.965398 -2.538884 -3.745150 -73.111178 -5.759401 -82.628958 -114.737862 -55.112445 0.000001 0.000001 0.000000 0.013068 -6.497941 0.322004 0.000005 0.000016 -3.019154 -5.000186 -7.999221 0.000098 9.396278 66.443670 -9.611485 -56.649562 109.011663 39.697380 -0.000002 -0.000001 -0.000000 5.490106 9.222055 0.184306 -0.000005 0.000001 3.000001 -5.000234 7.998862 -0.000137 2.819926 -172.797639 3.318215 -179.999991 0.000005 -1.217996 174.394482 -3.812728 -0.655931 -0.000001 0.000000 0.064872 68.423312 6.944375 2.035711 25.456901 -7.341545 0.000005 1.566612 171.995952 -1.210918 -0.000005 -0.000004 -1.302980 -9.213223 2.537669 0.964743 -0.000004 -0.000003 -0.105172 68.213844 -6.983191 -1.940880 25.456875 7.352699 -0.000000 
31.592897 0.884657 98.740692 -4.439954 -0.377660 0.819944 -0.465903 -0.161972 0.277888 3.070780 -0.324826 0.561423 4.715832 -0.317947 0.565457 22.368077 1.245942 -2.626564 -8.348551 -0.978461 -2.538672 -3.758292 -73.070368 -5.770184 -82.458763 -114.792886 -55.007693 0.000001 -0.000000 -0.000001 -0.004184 -6.523821 0.328680 0.000002 0.000016 -3.018131 -5.000186 -7.999220 0.000098 9.396751 66.455651 -9.609983 -56.669735 109.061544 39.767605 -0.000001 -0.000001 0.000000 5.584914 9.235536 0.177514 -0.000003 0.000001 3.000001 -5.000230 7.998862 -0.000139 2.822496 -172.792666 3.319732 -179.999991 0.000004 -1.217995 174.395002 -3.809755 -0.655604 -0.000001 0.000001 0.064890 68.422882 6.944347 2.035633 25.456902 -7.341545 0.000005 1.557339 171.998917 -1.209144 -0.000004 -0.000003 -1.303010 -9.235030 2.538549 0.966118 -0.000004 -0.000002 -0.105824 68.223105 -6.983190 -1.940195 25.456880 7.352700 0.000001 
31.634897 0.843648 98.738991 -4.447049 -0.381406 0.816767 -0.463008 -0.162020 0.275332 3.076570 -0.326610 0.558358 4.721633 -0.319760 0.562393 22.345391 1.281202 -2.627876 -8.340433 -0.991593 -2.538445 -3.771385 -73.029455 -5.780889 -82.288842 -114.848292 -54.902976 -0.000002 0.000001 0.000003 -0.021856 -6.549592 0.335363 0.000001 0.000017 -3.017110 -5.000186 -7.999221 0.000098 9.397214 66.467733 -9.608459 -56.687606 109.112047 39.835364 -0.000001 -0.000001 -0.000000 5.679616 9.248985 0.170700 -0.000003 0.000000 3.000001 -5.000234 7.998861 -0.000138 2.825138 -172.787680 3.321248 -179.999991 0.000005 -1.217996 174.395575 -3.806767 -0.656271 -0.000001 0.000001 0.064908 68.422465 6.944351 2.035459 25.456901 -7.341546 0.000004 1.548116 172.002878 -1.207322 -0.000005 -0.000005 -1.303039 -9.256869 2.539398 0.967494 -0.000004 -0.000002 -0.106478 68.232476 -6.983197 -1.939502 25.456871 7.352699 0.000002 
